<svg width="200" height="200" viewBox="0 0 200 200" fill="none" xmlns="http://www.w3.org/2000/svg">
<path fill-rule="evenodd" clip-rule="evenodd" d="M12 75.4547H23.4706V61.8184H12V75.4547Z" fill="#FF0000"/>
<path d="M12 84.8442V121.819H25.6362V84.8442H12ZM84.3926 90.4446C84.3926 85.3364 82.5254 80.9057 78.7934 77.1522C75.0615 73.3987 70.5427 71.522 65.2406 71.522C59.8829 71.522 55.3364 73.3838 51.6046 77.1134C47.8727 80.8401 46.0052 85.2858 46.0052 90.4446V121.819H32.3691V90.4446C32.3691 81.7919 35.59 74.4012 42.0287 68.2787C48.4674 62.1561 56.2036 59.0918 65.2406 59.0918C74.222 59.0918 81.9308 62.1561 88.3724 68.2787C94.811 74.4012 98.0288 81.7949 98.0288 90.4446V121.819H84.396V90.4446H84.3926Z" fill="black"/>
<path fill-rule="evenodd" clip-rule="evenodd" d="M129.194 128.043C90.7845 155.81 51.0415 167.757 40.4315 154.725C35.7114 148.93 37.5524 139.169 44.424 127.676C42.3603 134.124 42.652 139.589 45.7443 143.383C62.6237 164.111 131.333 118.164 147.714 100.725C137.669 89.5192 100.269 50.242 85.2207 51.1285C81.0243 51.3768 80.7921 55.4815 83.8123 62.1218C75.6329 49.0363 73.8832 40.4101 80.5945 40.0141C92.1486 39.3344 124.393 63.289 152.613 93.5204C153.024 93.9608 153.432 94.3982 153.836 94.8356C167.391 78.7949 172.895 63.8919 166.526 56.0666C163.436 52.2692 157.91 50.5877 150.766 50.7975C164.327 47.5203 174.808 48.3713 179.525 54.1664C186.849 63.162 178.38 81.7057 159.798 101.467C183.041 128.025 193.319 148.877 182.796 149.497C177.917 149.784 169.345 145.676 158.942 138.557C163.838 141.238 165.067 142.831 170.521 142.508C175.975 142.186 171.359 127.759 154.473 107.581C147.106 114.822 138.835 121.071 129.191 128.043H129.194Z" fill="#FF0000"/>
</svg>
